# xmcd CD database file
#
# Track frame offsets:
#	150
#	15642
#	33493
#	54071
#	71974
#	83110
#	103498
#	124229
#	144911
#	161359
#
# Disc length: 2480 seconds
#
# Revision: 1
# Processed by: cddbd v1.5.2PL0 Copyright (c) Steve Scherf et al.
# Submitted via: CDex 1.70beta2
#
DISCID=8209ae0a
DTITLE=アルファ - ホットカプセル(Collaboration with DJ TASAKA)
DYEAR=2006
DGENRE=Hip-Hop
TTITLE0=モンキーダンス
TTITLE1=エクスタシー温泉2006
TTITLE2=グッドモーニング
TTITLE3=わがまま飯店
TTITLE4=招かれざる客
TTITLE5=ムリだなTOKYO
TTITLE6=南海エアロプレーン
TTITLE7=ミカサスカサ
TTITLE8=ほえろ！妥協しません隊モテレンジャー
TTITLE9=バディバディムービン
EXTD=YEAR: 2006
EXTT0=
EXTT1=
EXTT2=
EXTT3=
EXTT4=
EXTT5=
EXTT6=
EXTT7=
EXTT8=
EXTT9=
PLAYORDER=
